<mxfile host="app.diagrams.net" modified="2020-09-10T23:54:00.522Z" agent="5.0 (Windows NT 10.0; Win64; x64) AppleWebKit/537.36 (KHTML, like Gecko) Chrome/85.0.4183.83 Safari/537.36" etag="Hcbu2zhD-hby6uogDLrv" version="13.6.9" type="github">
  <diagram id="C9Qe2fx25KIZvXZtYQdm" name="Page-1">
    <mxGraphModel dx="1673" dy="896" grid="1" gridSize="10" guides="1" tooltips="1" connect="1" arrows="1" fold="1" page="1" pageScale="1" pageWidth="850" pageHeight="1100" math="0" shadow="0">
      <root>
        <mxCell id="0" />
        <mxCell id="1" parent="0" />
        <mxCell id="6kmIEkO223TAk7wKPMEC-1" value="Input" style="shape=umlLifeline;perimeter=lifelinePerimeter;whiteSpace=wrap;html=1;container=1;collapsible=0;recursiveResize=0;outlineConnect=0;rounded=1;shadow=0;comic=0;labelBackgroundColor=none;strokeWidth=1;fontFamily=Verdana;fontSize=12;align=center;" vertex="1" parent="1">
          <mxGeometry x="200" y="80" width="100" height="240" as="geometry" />
        </mxCell>
        <mxCell id="6kmIEkO223TAk7wKPMEC-2" value="" style="html=1;points=[];perimeter=orthogonalPerimeter;rounded=0;shadow=0;comic=0;labelBackgroundColor=none;strokeWidth=1;fontFamily=Verdana;fontSize=12;align=center;" vertex="1" parent="6kmIEkO223TAk7wKPMEC-1">
          <mxGeometry x="45" y="100" width="10" height="60" as="geometry" />
        </mxCell>
        <mxCell id="6kmIEkO223TAk7wKPMEC-3" value="Login" style="shape=umlLifeline;perimeter=lifelinePerimeter;whiteSpace=wrap;html=1;container=1;collapsible=0;recursiveResize=0;outlineConnect=0;rounded=1;shadow=0;comic=0;labelBackgroundColor=none;strokeWidth=1;fontFamily=Verdana;fontSize=12;align=center;" vertex="1" parent="1">
          <mxGeometry x="360" y="80" width="100" height="240" as="geometry" />
        </mxCell>
        <mxCell id="6kmIEkO223TAk7wKPMEC-4" value="" style="html=1;points=[];perimeter=orthogonalPerimeter;rounded=0;shadow=0;comic=0;labelBackgroundColor=none;strokeWidth=1;fontFamily=Verdana;fontSize=12;align=center;" vertex="1" parent="6kmIEkO223TAk7wKPMEC-3">
          <mxGeometry x="45" y="120" width="10" height="110" as="geometry" />
        </mxCell>
        <mxCell id="6kmIEkO223TAk7wKPMEC-5" value="Database" style="shape=umlLifeline;perimeter=lifelinePerimeter;whiteSpace=wrap;html=1;container=1;collapsible=0;recursiveResize=0;outlineConnect=0;rounded=1;shadow=0;comic=0;labelBackgroundColor=none;strokeWidth=1;fontFamily=Verdana;fontSize=12;align=center;" vertex="1" parent="1">
          <mxGeometry x="500" y="80" width="100" height="240" as="geometry" />
        </mxCell>
        <mxCell id="6kmIEkO223TAk7wKPMEC-6" value="" style="html=1;points=[];perimeter=orthogonalPerimeter;rounded=0;shadow=0;comic=0;labelBackgroundColor=none;strokeWidth=1;fontFamily=Verdana;fontSize=12;align=center;" vertex="1" parent="6kmIEkO223TAk7wKPMEC-5">
          <mxGeometry x="45" y="130" width="10" height="50" as="geometry" />
        </mxCell>
        <mxCell id="6kmIEkO223TAk7wKPMEC-7" value="Chart" style="shape=umlLifeline;perimeter=lifelinePerimeter;whiteSpace=wrap;html=1;container=1;collapsible=0;recursiveResize=0;outlineConnect=0;rounded=1;shadow=0;comic=0;labelBackgroundColor=none;strokeWidth=1;fontFamily=Verdana;fontSize=12;align=center;" vertex="1" parent="1">
          <mxGeometry x="640" y="80" width="100" height="240" as="geometry" />
        </mxCell>
        <mxCell id="6kmIEkO223TAk7wKPMEC-8" value="Calculation" style="shape=umlLifeline;perimeter=lifelinePerimeter;whiteSpace=wrap;html=1;container=1;collapsible=0;recursiveResize=0;outlineConnect=0;rounded=1;shadow=0;comic=0;labelBackgroundColor=none;strokeWidth=1;fontFamily=Verdana;fontSize=12;align=center;" vertex="1" parent="1">
          <mxGeometry x="780" y="80" width="100" height="240" as="geometry" />
        </mxCell>
        <mxCell id="6kmIEkO223TAk7wKPMEC-10" value="Display" style="shape=umlLifeline;perimeter=lifelinePerimeter;whiteSpace=wrap;html=1;container=1;collapsible=0;recursiveResize=0;outlineConnect=0;rounded=1;shadow=0;comic=0;labelBackgroundColor=none;strokeWidth=1;fontFamily=Verdana;fontSize=12;align=center;" vertex="1" parent="1">
          <mxGeometry x="920" y="80" width="100" height="240" as="geometry" />
        </mxCell>
        <mxCell id="6kmIEkO223TAk7wKPMEC-12" value="User" style="shape=umlLifeline;perimeter=lifelinePerimeter;whiteSpace=wrap;html=1;container=1;collapsible=0;recursiveResize=0;outlineConnect=0;rounded=1;shadow=0;comic=0;labelBackgroundColor=none;strokeWidth=1;fontFamily=Verdana;fontSize=12;align=center;" vertex="1" parent="1">
          <mxGeometry x="60" y="80" width="100" height="100" as="geometry" />
        </mxCell>
        <mxCell id="6kmIEkO223TAk7wKPMEC-14" value="Authentication&amp;nbsp;" style="html=1;verticalAlign=bottom;endArrow=block;labelBackgroundColor=none;fontFamily=Verdana;fontSize=12;edgeStyle=elbowEdgeStyle;elbow=vertical;" edge="1" parent="1" target="6kmIEkO223TAk7wKPMEC-6">
          <mxGeometry x="0.2121" relative="1" as="geometry">
            <mxPoint x="460" y="220" as="sourcePoint" />
            <Array as="points">
              <mxPoint x="420" y="220" />
            </Array>
            <mxPoint as="offset" />
          </mxGeometry>
        </mxCell>
        <mxCell id="6kmIEkO223TAk7wKPMEC-19" value="Authentication, &lt;br&gt;Biometrics" style="html=1;verticalAlign=bottom;endArrow=block;entryX=0;entryY=0;labelBackgroundColor=none;fontFamily=Verdana;fontSize=12;edgeStyle=elbowEdgeStyle;elbow=vertical;" edge="1" parent="1" target="6kmIEkO223TAk7wKPMEC-2">
          <mxGeometry relative="1" as="geometry">
            <mxPoint x="115" y="180.47058823529414" as="sourcePoint" />
          </mxGeometry>
        </mxCell>
        <mxCell id="6kmIEkO223TAk7wKPMEC-20" value="Authentication" style="html=1;verticalAlign=bottom;endArrow=block;entryX=0;entryY=0;labelBackgroundColor=none;fontFamily=Verdana;fontSize=12;edgeStyle=elbowEdgeStyle;elbow=vertical;" edge="1" parent="1" source="6kmIEkO223TAk7wKPMEC-2" target="6kmIEkO223TAk7wKPMEC-4">
          <mxGeometry relative="1" as="geometry">
            <mxPoint x="330" y="200" as="sourcePoint" />
          </mxGeometry>
        </mxCell>
        <mxCell id="6kmIEkO223TAk7wKPMEC-29" value="return" style="html=1;verticalAlign=bottom;endArrow=open;dashed=1;endSize=8;" edge="1" parent="1">
          <mxGeometry relative="1" as="geometry">
            <mxPoint x="540" y="255" as="sourcePoint" />
            <mxPoint x="420" y="255" as="targetPoint" />
          </mxGeometry>
        </mxCell>
        <mxCell id="6kmIEkO223TAk7wKPMEC-55" value="Input" style="shape=umlLifeline;perimeter=lifelinePerimeter;whiteSpace=wrap;html=1;container=1;collapsible=0;recursiveResize=0;outlineConnect=0;rounded=1;shadow=0;comic=0;labelBackgroundColor=none;strokeWidth=1;fontFamily=Verdana;fontSize=12;align=center;" vertex="1" parent="1">
          <mxGeometry x="190" y="700" width="100" height="580" as="geometry" />
        </mxCell>
        <mxCell id="6kmIEkO223TAk7wKPMEC-56" value="" style="html=1;points=[];perimeter=orthogonalPerimeter;rounded=0;shadow=0;comic=0;labelBackgroundColor=none;strokeWidth=1;fontFamily=Verdana;fontSize=12;align=center;" vertex="1" parent="6kmIEkO223TAk7wKPMEC-55">
          <mxGeometry x="45" y="100" width="10" height="270" as="geometry" />
        </mxCell>
        <mxCell id="6kmIEkO223TAk7wKPMEC-57" value="Login" style="shape=umlLifeline;perimeter=lifelinePerimeter;whiteSpace=wrap;html=1;container=1;collapsible=0;recursiveResize=0;outlineConnect=0;rounded=1;shadow=0;comic=0;labelBackgroundColor=none;strokeWidth=1;fontFamily=Verdana;fontSize=12;align=center;" vertex="1" parent="1">
          <mxGeometry x="350" y="700" width="100" height="580" as="geometry" />
        </mxCell>
        <mxCell id="6kmIEkO223TAk7wKPMEC-58" value="" style="html=1;points=[];perimeter=orthogonalPerimeter;rounded=0;shadow=0;comic=0;labelBackgroundColor=none;strokeWidth=1;fontFamily=Verdana;fontSize=12;align=center;" vertex="1" parent="6kmIEkO223TAk7wKPMEC-57">
          <mxGeometry x="45" y="120" width="10" height="80" as="geometry" />
        </mxCell>
        <mxCell id="6kmIEkO223TAk7wKPMEC-59" value="Database" style="shape=umlLifeline;perimeter=lifelinePerimeter;whiteSpace=wrap;html=1;container=1;collapsible=0;recursiveResize=0;outlineConnect=0;rounded=1;shadow=0;comic=0;labelBackgroundColor=none;strokeWidth=1;fontFamily=Verdana;fontSize=12;align=center;" vertex="1" parent="1">
          <mxGeometry x="490" y="700" width="100" height="580" as="geometry" />
        </mxCell>
        <mxCell id="6kmIEkO223TAk7wKPMEC-60" value="" style="html=1;points=[];perimeter=orthogonalPerimeter;rounded=0;shadow=0;comic=0;labelBackgroundColor=none;strokeWidth=1;fontFamily=Verdana;fontSize=12;align=center;" vertex="1" parent="6kmIEkO223TAk7wKPMEC-59">
          <mxGeometry x="45" y="130" width="10" height="50" as="geometry" />
        </mxCell>
        <mxCell id="6kmIEkO223TAk7wKPMEC-61" value="Chart" style="shape=umlLifeline;perimeter=lifelinePerimeter;whiteSpace=wrap;html=1;container=1;collapsible=0;recursiveResize=0;outlineConnect=0;rounded=1;shadow=0;comic=0;labelBackgroundColor=none;strokeWidth=1;fontFamily=Verdana;fontSize=12;align=center;" vertex="1" parent="1">
          <mxGeometry x="630" y="700" width="100" height="580" as="geometry" />
        </mxCell>
        <mxCell id="6kmIEkO223TAk7wKPMEC-62" value="Calculation" style="shape=umlLifeline;perimeter=lifelinePerimeter;whiteSpace=wrap;html=1;container=1;collapsible=0;recursiveResize=0;outlineConnect=0;rounded=1;shadow=0;comic=0;labelBackgroundColor=none;strokeWidth=1;fontFamily=Verdana;fontSize=12;align=center;" vertex="1" parent="1">
          <mxGeometry x="770" y="700" width="100" height="580" as="geometry" />
        </mxCell>
        <mxCell id="6kmIEkO223TAk7wKPMEC-63" value="" style="html=1;points=[];perimeter=orthogonalPerimeter;rounded=0;shadow=0;comic=0;labelBackgroundColor=none;strokeWidth=1;fontFamily=Verdana;fontSize=12;align=center;" vertex="1" parent="6kmIEkO223TAk7wKPMEC-62">
          <mxGeometry x="45" y="430" width="10" height="40" as="geometry" />
        </mxCell>
        <mxCell id="6kmIEkO223TAk7wKPMEC-64" value="Display" style="shape=umlLifeline;perimeter=lifelinePerimeter;whiteSpace=wrap;html=1;container=1;collapsible=0;recursiveResize=0;outlineConnect=0;rounded=1;shadow=0;comic=0;labelBackgroundColor=none;strokeWidth=1;fontFamily=Verdana;fontSize=12;align=center;" vertex="1" parent="1">
          <mxGeometry x="910" y="700" width="100" height="580" as="geometry" />
        </mxCell>
        <mxCell id="6kmIEkO223TAk7wKPMEC-65" value="" style="html=1;points=[];perimeter=orthogonalPerimeter;rounded=0;shadow=0;comic=0;labelBackgroundColor=none;strokeWidth=1;fontFamily=Verdana;fontSize=12;align=center;" vertex="1" parent="6kmIEkO223TAk7wKPMEC-64">
          <mxGeometry x="45" y="380" width="10" height="190" as="geometry" />
        </mxCell>
        <mxCell id="6kmIEkO223TAk7wKPMEC-66" value="User" style="shape=umlLifeline;perimeter=lifelinePerimeter;whiteSpace=wrap;html=1;container=1;collapsible=0;recursiveResize=0;outlineConnect=0;rounded=1;shadow=0;comic=0;labelBackgroundColor=none;strokeWidth=1;fontFamily=Verdana;fontSize=12;align=center;" vertex="1" parent="1">
          <mxGeometry x="50" y="700" width="100" height="580" as="geometry" />
        </mxCell>
        <mxCell id="6kmIEkO223TAk7wKPMEC-67" value="" style="html=1;points=[];perimeter=orthogonalPerimeter;rounded=0;shadow=0;comic=0;labelBackgroundColor=none;strokeWidth=1;fontFamily=Verdana;fontSize=12;align=center;" vertex="1" parent="6kmIEkO223TAk7wKPMEC-66">
          <mxGeometry x="45" y="100" width="10" height="460" as="geometry" />
        </mxCell>
        <mxCell id="6kmIEkO223TAk7wKPMEC-68" value="Authentication &lt;font color=&quot;#ff0000&quot;&gt;FAILED&lt;/font&gt;" style="html=1;verticalAlign=bottom;endArrow=block;labelBackgroundColor=none;fontFamily=Verdana;fontSize=12;edgeStyle=elbowEdgeStyle;elbow=vertical;" edge="1" parent="1" target="6kmIEkO223TAk7wKPMEC-60">
          <mxGeometry x="0.2121" relative="1" as="geometry">
            <mxPoint x="450" y="840" as="sourcePoint" />
            <Array as="points">
              <mxPoint x="410" y="840" />
            </Array>
            <mxPoint as="offset" />
          </mxGeometry>
        </mxCell>
        <mxCell id="6kmIEkO223TAk7wKPMEC-69" value="" style="html=1;points=[];perimeter=orthogonalPerimeter;rounded=0;shadow=0;comic=0;labelBackgroundColor=none;strokeWidth=1;fontFamily=Verdana;fontSize=12;align=center;" vertex="1" parent="1">
          <mxGeometry x="675" y="1080" width="10" height="40" as="geometry" />
        </mxCell>
        <mxCell id="6kmIEkO223TAk7wKPMEC-70" value="" style="html=1;points=[];perimeter=orthogonalPerimeter;rounded=0;shadow=0;comic=0;labelBackgroundColor=none;strokeWidth=1;fontFamily=Verdana;fontSize=12;align=center;" vertex="1" parent="1">
          <mxGeometry x="535" y="1060" width="10" height="140" as="geometry" />
        </mxCell>
        <mxCell id="6kmIEkO223TAk7wKPMEC-71" value="Biometrics&lt;br&gt;Create, Update, Delete" style="html=1;verticalAlign=bottom;endArrow=block;entryX=0;entryY=0;labelBackgroundColor=none;fontFamily=Verdana;fontSize=12;exitX=1.2;exitY=0.967;exitDx=0;exitDy=0;exitPerimeter=0;" edge="1" parent="1" source="6kmIEkO223TAk7wKPMEC-56" target="6kmIEkO223TAk7wKPMEC-70">
          <mxGeometry relative="1" as="geometry">
            <mxPoint x="250" y="1060" as="sourcePoint" />
          </mxGeometry>
        </mxCell>
        <mxCell id="6kmIEkO223TAk7wKPMEC-72" value="return" style="html=1;verticalAlign=bottom;endArrow=open;dashed=1;endSize=8;labelBackgroundColor=none;fontFamily=Verdana;fontSize=12;edgeStyle=elbowEdgeStyle;elbow=vertical;" edge="1" parent="1" source="6kmIEkO223TAk7wKPMEC-65" target="6kmIEkO223TAk7wKPMEC-67">
          <mxGeometry relative="1" as="geometry">
            <mxPoint x="750" y="1246" as="targetPoint" />
            <Array as="points">
              <mxPoint x="900" y="1240" />
              <mxPoint x="640" y="1230" />
              <mxPoint x="520" y="1220" />
            </Array>
          </mxGeometry>
        </mxCell>
        <mxCell id="6kmIEkO223TAk7wKPMEC-73" value="Authentication, &lt;br&gt;Biometrics" style="html=1;verticalAlign=bottom;endArrow=block;entryX=0;entryY=0;labelBackgroundColor=none;fontFamily=Verdana;fontSize=12;edgeStyle=elbowEdgeStyle;elbow=vertical;" edge="1" parent="1" source="6kmIEkO223TAk7wKPMEC-67" target="6kmIEkO223TAk7wKPMEC-56">
          <mxGeometry relative="1" as="geometry">
            <mxPoint x="170" y="810" as="sourcePoint" />
          </mxGeometry>
        </mxCell>
        <mxCell id="6kmIEkO223TAk7wKPMEC-74" value="Authentication" style="html=1;verticalAlign=bottom;endArrow=block;entryX=0;entryY=0;labelBackgroundColor=none;fontFamily=Verdana;fontSize=12;edgeStyle=elbowEdgeStyle;elbow=vertical;" edge="1" parent="1" source="6kmIEkO223TAk7wKPMEC-56" target="6kmIEkO223TAk7wKPMEC-58">
          <mxGeometry relative="1" as="geometry">
            <mxPoint x="320" y="820" as="sourcePoint" />
          </mxGeometry>
        </mxCell>
        <mxCell id="6kmIEkO223TAk7wKPMEC-75" style="edgeStyle=orthogonalEdgeStyle;rounded=0;orthogonalLoop=1;jettySize=auto;html=1;" edge="1" parent="1">
          <mxGeometry relative="1" as="geometry">
            <mxPoint x="545" y="1149" as="sourcePoint" />
            <mxPoint x="811" y="1149" as="targetPoint" />
            <Array as="points">
              <mxPoint x="610" y="1149" />
              <mxPoint x="610" y="1149" />
            </Array>
          </mxGeometry>
        </mxCell>
        <mxCell id="6kmIEkO223TAk7wKPMEC-76" value="&lt;font face=&quot;Verdana&quot; style=&quot;font-size: 12px&quot;&gt;User Data&lt;/font&gt;" style="edgeLabel;html=1;align=center;verticalAlign=middle;resizable=0;points=[];" vertex="1" connectable="0" parent="6kmIEkO223TAk7wKPMEC-75">
          <mxGeometry x="-0.1821" relative="1" as="geometry">
            <mxPoint x="29" y="-9.9" as="offset" />
          </mxGeometry>
        </mxCell>
        <mxCell id="6kmIEkO223TAk7wKPMEC-77" style="edgeStyle=orthogonalEdgeStyle;rounded=0;orthogonalLoop=1;jettySize=auto;html=1;exitX=1;exitY=0.725;exitDx=0;exitDy=0;exitPerimeter=0;" edge="1" parent="1" source="6kmIEkO223TAk7wKPMEC-63">
          <mxGeometry relative="1" as="geometry">
            <mxPoint x="690" y="1110" as="sourcePoint" />
            <mxPoint x="950" y="1159" as="targetPoint" />
            <Array as="points">
              <mxPoint x="920" y="1159" />
              <mxPoint x="920" y="1159" />
            </Array>
          </mxGeometry>
        </mxCell>
        <mxCell id="6kmIEkO223TAk7wKPMEC-78" value="&lt;font face=&quot;Verdana&quot; style=&quot;font-size: 11px&quot;&gt;Daily Calorie Target&lt;/font&gt;" style="edgeLabel;html=1;align=center;verticalAlign=middle;resizable=0;points=[];" vertex="1" connectable="0" parent="6kmIEkO223TAk7wKPMEC-77">
          <mxGeometry x="-0.1821" relative="1" as="geometry">
            <mxPoint x="10" y="-9" as="offset" />
          </mxGeometry>
        </mxCell>
        <mxCell id="6kmIEkO223TAk7wKPMEC-79" style="edgeStyle=orthogonalEdgeStyle;rounded=0;orthogonalLoop=1;jettySize=auto;html=1;" edge="1" parent="1">
          <mxGeometry relative="1" as="geometry">
            <mxPoint x="685" y="1100" as="sourcePoint" />
            <mxPoint x="950" y="1100" as="targetPoint" />
            <Array as="points">
              <mxPoint x="890" y="1100" />
              <mxPoint x="890" y="1100" />
            </Array>
          </mxGeometry>
        </mxCell>
        <mxCell id="6kmIEkO223TAk7wKPMEC-80" value="&lt;font face=&quot;Verdana&quot; style=&quot;font-size: 12px&quot;&gt;Progress Chart&lt;/font&gt;" style="edgeLabel;html=1;align=center;verticalAlign=middle;resizable=0;points=[];" vertex="1" connectable="0" parent="6kmIEkO223TAk7wKPMEC-79">
          <mxGeometry x="-0.1821" relative="1" as="geometry">
            <mxPoint x="23" y="-9.9" as="offset" />
          </mxGeometry>
        </mxCell>
        <mxCell id="6kmIEkO223TAk7wKPMEC-81" value="Historic User Data" style="html=1;verticalAlign=bottom;endArrow=block;entryX=0;entryY=0;labelBackgroundColor=none;fontFamily=Verdana;fontSize=12;edgeStyle=elbowEdgeStyle;elbow=vertical;" edge="1" parent="1">
          <mxGeometry relative="1" as="geometry">
            <mxPoint x="545" y="1080" as="sourcePoint" />
            <mxPoint x="675" y="1080" as="targetPoint" />
          </mxGeometry>
        </mxCell>
        <mxCell id="6kmIEkO223TAk7wKPMEC-82" value="User Data" style="html=1;verticalAlign=bottom;endArrow=block;labelBackgroundColor=none;fontFamily=Verdana;fontSize=12;edgeStyle=elbowEdgeStyle;elbow=vertical;" edge="1" parent="1">
          <mxGeometry relative="1" as="geometry">
            <mxPoint x="545" y="1190" as="sourcePoint" />
            <mxPoint x="950" y="1190" as="targetPoint" />
            <mxPoint as="offset" />
          </mxGeometry>
        </mxCell>
        <mxCell id="6kmIEkO223TAk7wKPMEC-83" value="return" style="html=1;verticalAlign=bottom;endArrow=open;dashed=1;endSize=8;" edge="1" parent="1">
          <mxGeometry relative="1" as="geometry">
            <mxPoint x="530" y="875" as="sourcePoint" />
            <mxPoint x="410" y="875" as="targetPoint" />
          </mxGeometry>
        </mxCell>
        <mxCell id="6kmIEkO223TAk7wKPMEC-84" value="Input" style="shape=umlLifeline;perimeter=lifelinePerimeter;whiteSpace=wrap;html=1;container=1;collapsible=0;recursiveResize=0;outlineConnect=0;rounded=1;shadow=0;comic=0;labelBackgroundColor=none;strokeWidth=1;fontFamily=Verdana;fontSize=12;align=center;" vertex="1" parent="1">
          <mxGeometry x="220" y="1350" width="100" height="580" as="geometry" />
        </mxCell>
        <mxCell id="6kmIEkO223TAk7wKPMEC-85" value="" style="html=1;points=[];perimeter=orthogonalPerimeter;rounded=0;shadow=0;comic=0;labelBackgroundColor=none;strokeWidth=1;fontFamily=Verdana;fontSize=12;align=center;" vertex="1" parent="6kmIEkO223TAk7wKPMEC-84">
          <mxGeometry x="45" y="100" width="10" height="270" as="geometry" />
        </mxCell>
        <mxCell id="6kmIEkO223TAk7wKPMEC-86" value="Login" style="shape=umlLifeline;perimeter=lifelinePerimeter;whiteSpace=wrap;html=1;container=1;collapsible=0;recursiveResize=0;outlineConnect=0;rounded=1;shadow=0;comic=0;labelBackgroundColor=none;strokeWidth=1;fontFamily=Verdana;fontSize=12;align=center;" vertex="1" parent="1">
          <mxGeometry x="380" y="1350" width="100" height="580" as="geometry" />
        </mxCell>
        <mxCell id="6kmIEkO223TAk7wKPMEC-87" value="" style="html=1;points=[];perimeter=orthogonalPerimeter;rounded=0;shadow=0;comic=0;labelBackgroundColor=none;strokeWidth=1;fontFamily=Verdana;fontSize=12;align=center;" vertex="1" parent="6kmIEkO223TAk7wKPMEC-86">
          <mxGeometry x="45" y="120" width="10" height="80" as="geometry" />
        </mxCell>
        <mxCell id="6kmIEkO223TAk7wKPMEC-88" value="Database" style="shape=umlLifeline;perimeter=lifelinePerimeter;whiteSpace=wrap;html=1;container=1;collapsible=0;recursiveResize=0;outlineConnect=0;rounded=1;shadow=0;comic=0;labelBackgroundColor=none;strokeWidth=1;fontFamily=Verdana;fontSize=12;align=center;" vertex="1" parent="1">
          <mxGeometry x="520" y="1350" width="100" height="580" as="geometry" />
        </mxCell>
        <mxCell id="6kmIEkO223TAk7wKPMEC-89" value="" style="html=1;points=[];perimeter=orthogonalPerimeter;rounded=0;shadow=0;comic=0;labelBackgroundColor=none;strokeWidth=1;fontFamily=Verdana;fontSize=12;align=center;" vertex="1" parent="6kmIEkO223TAk7wKPMEC-88">
          <mxGeometry x="45" y="130" width="10" height="50" as="geometry" />
        </mxCell>
        <mxCell id="6kmIEkO223TAk7wKPMEC-90" value="Chart" style="shape=umlLifeline;perimeter=lifelinePerimeter;whiteSpace=wrap;html=1;container=1;collapsible=0;recursiveResize=0;outlineConnect=0;rounded=1;shadow=0;comic=0;labelBackgroundColor=none;strokeWidth=1;fontFamily=Verdana;fontSize=12;align=center;" vertex="1" parent="1">
          <mxGeometry x="660" y="1350" width="100" height="580" as="geometry" />
        </mxCell>
        <mxCell id="6kmIEkO223TAk7wKPMEC-91" value="Calculation" style="shape=umlLifeline;perimeter=lifelinePerimeter;whiteSpace=wrap;html=1;container=1;collapsible=0;recursiveResize=0;outlineConnect=0;rounded=1;shadow=0;comic=0;labelBackgroundColor=none;strokeWidth=1;fontFamily=Verdana;fontSize=12;align=center;" vertex="1" parent="1">
          <mxGeometry x="800" y="1350" width="100" height="580" as="geometry" />
        </mxCell>
        <mxCell id="6kmIEkO223TAk7wKPMEC-92" value="" style="html=1;points=[];perimeter=orthogonalPerimeter;rounded=0;shadow=0;comic=0;labelBackgroundColor=none;strokeWidth=1;fontFamily=Verdana;fontSize=12;align=center;" vertex="1" parent="6kmIEkO223TAk7wKPMEC-91">
          <mxGeometry x="45" y="430" width="10" height="40" as="geometry" />
        </mxCell>
        <mxCell id="6kmIEkO223TAk7wKPMEC-93" value="Display" style="shape=umlLifeline;perimeter=lifelinePerimeter;whiteSpace=wrap;html=1;container=1;collapsible=0;recursiveResize=0;outlineConnect=0;rounded=1;shadow=0;comic=0;labelBackgroundColor=none;strokeWidth=1;fontFamily=Verdana;fontSize=12;align=center;" vertex="1" parent="1">
          <mxGeometry x="940" y="1350" width="100" height="580" as="geometry" />
        </mxCell>
        <mxCell id="6kmIEkO223TAk7wKPMEC-94" value="" style="html=1;points=[];perimeter=orthogonalPerimeter;rounded=0;shadow=0;comic=0;labelBackgroundColor=none;strokeWidth=1;fontFamily=Verdana;fontSize=12;align=center;" vertex="1" parent="6kmIEkO223TAk7wKPMEC-93">
          <mxGeometry x="45" y="380" width="10" height="190" as="geometry" />
        </mxCell>
        <mxCell id="6kmIEkO223TAk7wKPMEC-95" value="User" style="shape=umlLifeline;perimeter=lifelinePerimeter;whiteSpace=wrap;html=1;container=1;collapsible=0;recursiveResize=0;outlineConnect=0;rounded=1;shadow=0;comic=0;labelBackgroundColor=none;strokeWidth=1;fontFamily=Verdana;fontSize=12;align=center;" vertex="1" parent="1">
          <mxGeometry x="80" y="1350" width="100" height="580" as="geometry" />
        </mxCell>
        <mxCell id="6kmIEkO223TAk7wKPMEC-96" value="" style="html=1;points=[];perimeter=orthogonalPerimeter;rounded=0;shadow=0;comic=0;labelBackgroundColor=none;strokeWidth=1;fontFamily=Verdana;fontSize=12;align=center;" vertex="1" parent="6kmIEkO223TAk7wKPMEC-95">
          <mxGeometry x="45" y="100" width="10" height="460" as="geometry" />
        </mxCell>
        <mxCell id="6kmIEkO223TAk7wKPMEC-97" value="Authentication &lt;font color=&quot;#ff0000&quot;&gt;FAILED&lt;/font&gt;" style="html=1;verticalAlign=bottom;endArrow=block;labelBackgroundColor=none;fontFamily=Verdana;fontSize=12;edgeStyle=elbowEdgeStyle;elbow=vertical;" edge="1" parent="1" target="6kmIEkO223TAk7wKPMEC-89">
          <mxGeometry x="0.2121" relative="1" as="geometry">
            <mxPoint x="480" y="1490" as="sourcePoint" />
            <Array as="points">
              <mxPoint x="440" y="1490" />
            </Array>
            <mxPoint as="offset" />
          </mxGeometry>
        </mxCell>
        <mxCell id="6kmIEkO223TAk7wKPMEC-98" value="" style="html=1;points=[];perimeter=orthogonalPerimeter;rounded=0;shadow=0;comic=0;labelBackgroundColor=none;strokeWidth=1;fontFamily=Verdana;fontSize=12;align=center;" vertex="1" parent="1">
          <mxGeometry x="705" y="1730" width="10" height="40" as="geometry" />
        </mxCell>
        <mxCell id="6kmIEkO223TAk7wKPMEC-99" value="" style="html=1;points=[];perimeter=orthogonalPerimeter;rounded=0;shadow=0;comic=0;labelBackgroundColor=none;strokeWidth=1;fontFamily=Verdana;fontSize=12;align=center;" vertex="1" parent="1">
          <mxGeometry x="565" y="1710" width="10" height="140" as="geometry" />
        </mxCell>
        <mxCell id="6kmIEkO223TAk7wKPMEC-100" value="Biometrics&lt;br&gt;Create, Update, Delete" style="html=1;verticalAlign=bottom;endArrow=block;entryX=0;entryY=0;labelBackgroundColor=none;fontFamily=Verdana;fontSize=12;exitX=1.2;exitY=0.967;exitDx=0;exitDy=0;exitPerimeter=0;" edge="1" parent="1" source="6kmIEkO223TAk7wKPMEC-85" target="6kmIEkO223TAk7wKPMEC-99">
          <mxGeometry relative="1" as="geometry">
            <mxPoint x="280" y="1710" as="sourcePoint" />
          </mxGeometry>
        </mxCell>
        <mxCell id="6kmIEkO223TAk7wKPMEC-101" value="return" style="html=1;verticalAlign=bottom;endArrow=open;dashed=1;endSize=8;labelBackgroundColor=none;fontFamily=Verdana;fontSize=12;edgeStyle=elbowEdgeStyle;elbow=vertical;" edge="1" parent="1" source="6kmIEkO223TAk7wKPMEC-94" target="6kmIEkO223TAk7wKPMEC-96">
          <mxGeometry relative="1" as="geometry">
            <mxPoint x="780" y="1896" as="targetPoint" />
            <Array as="points">
              <mxPoint x="930" y="1890" />
              <mxPoint x="670" y="1880" />
              <mxPoint x="550" y="1870" />
            </Array>
          </mxGeometry>
        </mxCell>
        <mxCell id="6kmIEkO223TAk7wKPMEC-102" value="Authentication, &lt;br&gt;Biometrics" style="html=1;verticalAlign=bottom;endArrow=block;entryX=0;entryY=0;labelBackgroundColor=none;fontFamily=Verdana;fontSize=12;edgeStyle=elbowEdgeStyle;elbow=vertical;" edge="1" parent="1" source="6kmIEkO223TAk7wKPMEC-96" target="6kmIEkO223TAk7wKPMEC-85">
          <mxGeometry relative="1" as="geometry">
            <mxPoint x="200" y="1460" as="sourcePoint" />
          </mxGeometry>
        </mxCell>
        <mxCell id="6kmIEkO223TAk7wKPMEC-103" value="Authentication" style="html=1;verticalAlign=bottom;endArrow=block;entryX=0;entryY=0;labelBackgroundColor=none;fontFamily=Verdana;fontSize=12;edgeStyle=elbowEdgeStyle;elbow=vertical;" edge="1" parent="1" source="6kmIEkO223TAk7wKPMEC-85" target="6kmIEkO223TAk7wKPMEC-87">
          <mxGeometry relative="1" as="geometry">
            <mxPoint x="350" y="1470" as="sourcePoint" />
          </mxGeometry>
        </mxCell>
        <mxCell id="6kmIEkO223TAk7wKPMEC-104" style="edgeStyle=orthogonalEdgeStyle;rounded=0;orthogonalLoop=1;jettySize=auto;html=1;" edge="1" parent="1">
          <mxGeometry relative="1" as="geometry">
            <mxPoint x="575" y="1799" as="sourcePoint" />
            <mxPoint x="841" y="1799" as="targetPoint" />
            <Array as="points">
              <mxPoint x="640" y="1799" />
              <mxPoint x="640" y="1799" />
            </Array>
          </mxGeometry>
        </mxCell>
        <mxCell id="6kmIEkO223TAk7wKPMEC-105" value="&lt;font face=&quot;Verdana&quot; style=&quot;font-size: 12px&quot;&gt;User Data&lt;/font&gt;" style="edgeLabel;html=1;align=center;verticalAlign=middle;resizable=0;points=[];" vertex="1" connectable="0" parent="6kmIEkO223TAk7wKPMEC-104">
          <mxGeometry x="-0.1821" relative="1" as="geometry">
            <mxPoint x="29" y="-9.9" as="offset" />
          </mxGeometry>
        </mxCell>
        <mxCell id="6kmIEkO223TAk7wKPMEC-106" style="edgeStyle=orthogonalEdgeStyle;rounded=0;orthogonalLoop=1;jettySize=auto;html=1;exitX=1;exitY=0.725;exitDx=0;exitDy=0;exitPerimeter=0;" edge="1" parent="1" source="6kmIEkO223TAk7wKPMEC-92">
          <mxGeometry relative="1" as="geometry">
            <mxPoint x="720" y="1760" as="sourcePoint" />
            <mxPoint x="980" y="1809" as="targetPoint" />
            <Array as="points">
              <mxPoint x="950" y="1809" />
              <mxPoint x="950" y="1809" />
            </Array>
          </mxGeometry>
        </mxCell>
        <mxCell id="6kmIEkO223TAk7wKPMEC-107" value="&lt;font face=&quot;Verdana&quot; style=&quot;font-size: 11px&quot;&gt;Daily Calorie Target&lt;/font&gt;" style="edgeLabel;html=1;align=center;verticalAlign=middle;resizable=0;points=[];" vertex="1" connectable="0" parent="6kmIEkO223TAk7wKPMEC-106">
          <mxGeometry x="-0.1821" relative="1" as="geometry">
            <mxPoint x="10" y="-9" as="offset" />
          </mxGeometry>
        </mxCell>
        <mxCell id="6kmIEkO223TAk7wKPMEC-108" style="edgeStyle=orthogonalEdgeStyle;rounded=0;orthogonalLoop=1;jettySize=auto;html=1;" edge="1" parent="1">
          <mxGeometry relative="1" as="geometry">
            <mxPoint x="715" y="1750" as="sourcePoint" />
            <mxPoint x="980" y="1750" as="targetPoint" />
            <Array as="points">
              <mxPoint x="920" y="1750" />
              <mxPoint x="920" y="1750" />
            </Array>
          </mxGeometry>
        </mxCell>
        <mxCell id="6kmIEkO223TAk7wKPMEC-109" value="&lt;font face=&quot;Verdana&quot; style=&quot;font-size: 12px&quot;&gt;Progress Chart&lt;/font&gt;" style="edgeLabel;html=1;align=center;verticalAlign=middle;resizable=0;points=[];" vertex="1" connectable="0" parent="6kmIEkO223TAk7wKPMEC-108">
          <mxGeometry x="-0.1821" relative="1" as="geometry">
            <mxPoint x="23" y="-9.9" as="offset" />
          </mxGeometry>
        </mxCell>
        <mxCell id="6kmIEkO223TAk7wKPMEC-110" value="Historic User Data" style="html=1;verticalAlign=bottom;endArrow=block;entryX=0;entryY=0;labelBackgroundColor=none;fontFamily=Verdana;fontSize=12;edgeStyle=elbowEdgeStyle;elbow=vertical;" edge="1" parent="1">
          <mxGeometry relative="1" as="geometry">
            <mxPoint x="575" y="1730" as="sourcePoint" />
            <mxPoint x="705" y="1730" as="targetPoint" />
          </mxGeometry>
        </mxCell>
        <mxCell id="6kmIEkO223TAk7wKPMEC-111" value="User Data" style="html=1;verticalAlign=bottom;endArrow=block;labelBackgroundColor=none;fontFamily=Verdana;fontSize=12;edgeStyle=elbowEdgeStyle;elbow=vertical;" edge="1" parent="1">
          <mxGeometry relative="1" as="geometry">
            <mxPoint x="575" y="1840" as="sourcePoint" />
            <mxPoint x="980" y="1840" as="targetPoint" />
            <mxPoint as="offset" />
          </mxGeometry>
        </mxCell>
        <mxCell id="6kmIEkO223TAk7wKPMEC-112" value="return" style="html=1;verticalAlign=bottom;endArrow=open;dashed=1;endSize=8;" edge="1" parent="1">
          <mxGeometry relative="1" as="geometry">
            <mxPoint x="560" y="1525" as="sourcePoint" />
            <mxPoint x="440" y="1525" as="targetPoint" />
          </mxGeometry>
        </mxCell>
        <mxCell id="6kmIEkO223TAk7wKPMEC-113" value="Input" style="shape=umlLifeline;perimeter=lifelinePerimeter;whiteSpace=wrap;html=1;container=1;collapsible=0;recursiveResize=0;outlineConnect=0;rounded=1;shadow=0;comic=0;labelBackgroundColor=none;strokeWidth=1;fontFamily=Verdana;fontSize=12;align=center;" vertex="1" parent="1">
          <mxGeometry x="260" y="2000" width="100" height="580" as="geometry" />
        </mxCell>
        <mxCell id="6kmIEkO223TAk7wKPMEC-114" value="" style="html=1;points=[];perimeter=orthogonalPerimeter;rounded=0;shadow=0;comic=0;labelBackgroundColor=none;strokeWidth=1;fontFamily=Verdana;fontSize=12;align=center;" vertex="1" parent="6kmIEkO223TAk7wKPMEC-113">
          <mxGeometry x="45" y="100" width="10" height="270" as="geometry" />
        </mxCell>
        <mxCell id="6kmIEkO223TAk7wKPMEC-115" value="Login" style="shape=umlLifeline;perimeter=lifelinePerimeter;whiteSpace=wrap;html=1;container=1;collapsible=0;recursiveResize=0;outlineConnect=0;rounded=1;shadow=0;comic=0;labelBackgroundColor=none;strokeWidth=1;fontFamily=Verdana;fontSize=12;align=center;" vertex="1" parent="1">
          <mxGeometry x="420" y="2000" width="100" height="580" as="geometry" />
        </mxCell>
        <mxCell id="6kmIEkO223TAk7wKPMEC-116" value="" style="html=1;points=[];perimeter=orthogonalPerimeter;rounded=0;shadow=0;comic=0;labelBackgroundColor=none;strokeWidth=1;fontFamily=Verdana;fontSize=12;align=center;" vertex="1" parent="6kmIEkO223TAk7wKPMEC-115">
          <mxGeometry x="45" y="120" width="10" height="80" as="geometry" />
        </mxCell>
        <mxCell id="6kmIEkO223TAk7wKPMEC-117" value="Database" style="shape=umlLifeline;perimeter=lifelinePerimeter;whiteSpace=wrap;html=1;container=1;collapsible=0;recursiveResize=0;outlineConnect=0;rounded=1;shadow=0;comic=0;labelBackgroundColor=none;strokeWidth=1;fontFamily=Verdana;fontSize=12;align=center;" vertex="1" parent="1">
          <mxGeometry x="560" y="2000" width="100" height="580" as="geometry" />
        </mxCell>
        <mxCell id="6kmIEkO223TAk7wKPMEC-118" value="" style="html=1;points=[];perimeter=orthogonalPerimeter;rounded=0;shadow=0;comic=0;labelBackgroundColor=none;strokeWidth=1;fontFamily=Verdana;fontSize=12;align=center;" vertex="1" parent="6kmIEkO223TAk7wKPMEC-117">
          <mxGeometry x="45" y="130" width="10" height="50" as="geometry" />
        </mxCell>
        <mxCell id="6kmIEkO223TAk7wKPMEC-119" value="Chart" style="shape=umlLifeline;perimeter=lifelinePerimeter;whiteSpace=wrap;html=1;container=1;collapsible=0;recursiveResize=0;outlineConnect=0;rounded=1;shadow=0;comic=0;labelBackgroundColor=none;strokeWidth=1;fontFamily=Verdana;fontSize=12;align=center;" vertex="1" parent="1">
          <mxGeometry x="700" y="2000" width="100" height="580" as="geometry" />
        </mxCell>
        <mxCell id="6kmIEkO223TAk7wKPMEC-120" value="Calculation" style="shape=umlLifeline;perimeter=lifelinePerimeter;whiteSpace=wrap;html=1;container=1;collapsible=0;recursiveResize=0;outlineConnect=0;rounded=1;shadow=0;comic=0;labelBackgroundColor=none;strokeWidth=1;fontFamily=Verdana;fontSize=12;align=center;" vertex="1" parent="1">
          <mxGeometry x="840" y="2000" width="100" height="580" as="geometry" />
        </mxCell>
        <mxCell id="6kmIEkO223TAk7wKPMEC-121" value="" style="html=1;points=[];perimeter=orthogonalPerimeter;rounded=0;shadow=0;comic=0;labelBackgroundColor=none;strokeWidth=1;fontFamily=Verdana;fontSize=12;align=center;" vertex="1" parent="6kmIEkO223TAk7wKPMEC-120">
          <mxGeometry x="45" y="430" width="10" height="40" as="geometry" />
        </mxCell>
        <mxCell id="6kmIEkO223TAk7wKPMEC-122" value="Display" style="shape=umlLifeline;perimeter=lifelinePerimeter;whiteSpace=wrap;html=1;container=1;collapsible=0;recursiveResize=0;outlineConnect=0;rounded=1;shadow=0;comic=0;labelBackgroundColor=none;strokeWidth=1;fontFamily=Verdana;fontSize=12;align=center;" vertex="1" parent="1">
          <mxGeometry x="980" y="2000" width="100" height="580" as="geometry" />
        </mxCell>
        <mxCell id="6kmIEkO223TAk7wKPMEC-123" value="" style="html=1;points=[];perimeter=orthogonalPerimeter;rounded=0;shadow=0;comic=0;labelBackgroundColor=none;strokeWidth=1;fontFamily=Verdana;fontSize=12;align=center;" vertex="1" parent="6kmIEkO223TAk7wKPMEC-122">
          <mxGeometry x="45" y="380" width="10" height="190" as="geometry" />
        </mxCell>
        <mxCell id="6kmIEkO223TAk7wKPMEC-124" value="User" style="shape=umlLifeline;perimeter=lifelinePerimeter;whiteSpace=wrap;html=1;container=1;collapsible=0;recursiveResize=0;outlineConnect=0;rounded=1;shadow=0;comic=0;labelBackgroundColor=none;strokeWidth=1;fontFamily=Verdana;fontSize=12;align=center;" vertex="1" parent="1">
          <mxGeometry x="120" y="2000" width="100" height="580" as="geometry" />
        </mxCell>
        <mxCell id="6kmIEkO223TAk7wKPMEC-125" value="" style="html=1;points=[];perimeter=orthogonalPerimeter;rounded=0;shadow=0;comic=0;labelBackgroundColor=none;strokeWidth=1;fontFamily=Verdana;fontSize=12;align=center;" vertex="1" parent="6kmIEkO223TAk7wKPMEC-124">
          <mxGeometry x="45" y="100" width="10" height="460" as="geometry" />
        </mxCell>
        <mxCell id="6kmIEkO223TAk7wKPMEC-126" value="Authentication &lt;font color=&quot;#ff0000&quot;&gt;FAILED&lt;/font&gt;" style="html=1;verticalAlign=bottom;endArrow=block;labelBackgroundColor=none;fontFamily=Verdana;fontSize=12;edgeStyle=elbowEdgeStyle;elbow=vertical;" edge="1" parent="1" target="6kmIEkO223TAk7wKPMEC-118">
          <mxGeometry x="0.2121" relative="1" as="geometry">
            <mxPoint x="520" y="2140" as="sourcePoint" />
            <Array as="points">
              <mxPoint x="480" y="2140" />
            </Array>
            <mxPoint as="offset" />
          </mxGeometry>
        </mxCell>
        <mxCell id="6kmIEkO223TAk7wKPMEC-127" value="" style="html=1;points=[];perimeter=orthogonalPerimeter;rounded=0;shadow=0;comic=0;labelBackgroundColor=none;strokeWidth=1;fontFamily=Verdana;fontSize=12;align=center;" vertex="1" parent="1">
          <mxGeometry x="745" y="2380" width="10" height="40" as="geometry" />
        </mxCell>
        <mxCell id="6kmIEkO223TAk7wKPMEC-128" value="" style="html=1;points=[];perimeter=orthogonalPerimeter;rounded=0;shadow=0;comic=0;labelBackgroundColor=none;strokeWidth=1;fontFamily=Verdana;fontSize=12;align=center;" vertex="1" parent="1">
          <mxGeometry x="605" y="2360" width="10" height="140" as="geometry" />
        </mxCell>
        <mxCell id="6kmIEkO223TAk7wKPMEC-129" value="Biometrics&lt;br&gt;Create, Update, Delete" style="html=1;verticalAlign=bottom;endArrow=block;entryX=0;entryY=0;labelBackgroundColor=none;fontFamily=Verdana;fontSize=12;exitX=1.2;exitY=0.967;exitDx=0;exitDy=0;exitPerimeter=0;" edge="1" parent="1" source="6kmIEkO223TAk7wKPMEC-114" target="6kmIEkO223TAk7wKPMEC-128">
          <mxGeometry relative="1" as="geometry">
            <mxPoint x="320" y="2360" as="sourcePoint" />
          </mxGeometry>
        </mxCell>
        <mxCell id="6kmIEkO223TAk7wKPMEC-130" value="return" style="html=1;verticalAlign=bottom;endArrow=open;dashed=1;endSize=8;labelBackgroundColor=none;fontFamily=Verdana;fontSize=12;edgeStyle=elbowEdgeStyle;elbow=vertical;" edge="1" parent="1" source="6kmIEkO223TAk7wKPMEC-123" target="6kmIEkO223TAk7wKPMEC-125">
          <mxGeometry relative="1" as="geometry">
            <mxPoint x="820" y="2546" as="targetPoint" />
            <Array as="points">
              <mxPoint x="970" y="2540" />
              <mxPoint x="710" y="2530" />
              <mxPoint x="590" y="2520" />
            </Array>
          </mxGeometry>
        </mxCell>
        <mxCell id="6kmIEkO223TAk7wKPMEC-131" value="Authentication, &lt;br&gt;Biometrics" style="html=1;verticalAlign=bottom;endArrow=block;entryX=0;entryY=0;labelBackgroundColor=none;fontFamily=Verdana;fontSize=12;edgeStyle=elbowEdgeStyle;elbow=vertical;" edge="1" parent="1" source="6kmIEkO223TAk7wKPMEC-125" target="6kmIEkO223TAk7wKPMEC-114">
          <mxGeometry relative="1" as="geometry">
            <mxPoint x="240" y="2110" as="sourcePoint" />
          </mxGeometry>
        </mxCell>
        <mxCell id="6kmIEkO223TAk7wKPMEC-132" value="Authentication" style="html=1;verticalAlign=bottom;endArrow=block;entryX=0;entryY=0;labelBackgroundColor=none;fontFamily=Verdana;fontSize=12;edgeStyle=elbowEdgeStyle;elbow=vertical;" edge="1" parent="1" source="6kmIEkO223TAk7wKPMEC-114" target="6kmIEkO223TAk7wKPMEC-116">
          <mxGeometry relative="1" as="geometry">
            <mxPoint x="390" y="2120" as="sourcePoint" />
          </mxGeometry>
        </mxCell>
        <mxCell id="6kmIEkO223TAk7wKPMEC-133" style="edgeStyle=orthogonalEdgeStyle;rounded=0;orthogonalLoop=1;jettySize=auto;html=1;" edge="1" parent="1">
          <mxGeometry relative="1" as="geometry">
            <mxPoint x="615" y="2449" as="sourcePoint" />
            <mxPoint x="881" y="2449" as="targetPoint" />
            <Array as="points">
              <mxPoint x="680" y="2449" />
              <mxPoint x="680" y="2449" />
            </Array>
          </mxGeometry>
        </mxCell>
        <mxCell id="6kmIEkO223TAk7wKPMEC-134" value="&lt;font face=&quot;Verdana&quot; style=&quot;font-size: 12px&quot;&gt;User Data&lt;/font&gt;" style="edgeLabel;html=1;align=center;verticalAlign=middle;resizable=0;points=[];" vertex="1" connectable="0" parent="6kmIEkO223TAk7wKPMEC-133">
          <mxGeometry x="-0.1821" relative="1" as="geometry">
            <mxPoint x="29" y="-9.9" as="offset" />
          </mxGeometry>
        </mxCell>
        <mxCell id="6kmIEkO223TAk7wKPMEC-135" style="edgeStyle=orthogonalEdgeStyle;rounded=0;orthogonalLoop=1;jettySize=auto;html=1;exitX=1;exitY=0.725;exitDx=0;exitDy=0;exitPerimeter=0;" edge="1" parent="1" source="6kmIEkO223TAk7wKPMEC-121">
          <mxGeometry relative="1" as="geometry">
            <mxPoint x="760" y="2410" as="sourcePoint" />
            <mxPoint x="1020" y="2459" as="targetPoint" />
            <Array as="points">
              <mxPoint x="990" y="2459" />
              <mxPoint x="990" y="2459" />
            </Array>
          </mxGeometry>
        </mxCell>
        <mxCell id="6kmIEkO223TAk7wKPMEC-136" value="&lt;font face=&quot;Verdana&quot; style=&quot;font-size: 11px&quot;&gt;Daily Calorie Target&lt;/font&gt;" style="edgeLabel;html=1;align=center;verticalAlign=middle;resizable=0;points=[];" vertex="1" connectable="0" parent="6kmIEkO223TAk7wKPMEC-135">
          <mxGeometry x="-0.1821" relative="1" as="geometry">
            <mxPoint x="10" y="-9" as="offset" />
          </mxGeometry>
        </mxCell>
        <mxCell id="6kmIEkO223TAk7wKPMEC-137" style="edgeStyle=orthogonalEdgeStyle;rounded=0;orthogonalLoop=1;jettySize=auto;html=1;" edge="1" parent="1">
          <mxGeometry relative="1" as="geometry">
            <mxPoint x="755" y="2400" as="sourcePoint" />
            <mxPoint x="1020" y="2400" as="targetPoint" />
            <Array as="points">
              <mxPoint x="960" y="2400" />
              <mxPoint x="960" y="2400" />
            </Array>
          </mxGeometry>
        </mxCell>
        <mxCell id="6kmIEkO223TAk7wKPMEC-138" value="&lt;font face=&quot;Verdana&quot; style=&quot;font-size: 12px&quot;&gt;Progress Chart&lt;/font&gt;" style="edgeLabel;html=1;align=center;verticalAlign=middle;resizable=0;points=[];" vertex="1" connectable="0" parent="6kmIEkO223TAk7wKPMEC-137">
          <mxGeometry x="-0.1821" relative="1" as="geometry">
            <mxPoint x="23" y="-9.9" as="offset" />
          </mxGeometry>
        </mxCell>
        <mxCell id="6kmIEkO223TAk7wKPMEC-139" value="Historic User Data" style="html=1;verticalAlign=bottom;endArrow=block;entryX=0;entryY=0;labelBackgroundColor=none;fontFamily=Verdana;fontSize=12;edgeStyle=elbowEdgeStyle;elbow=vertical;" edge="1" parent="1">
          <mxGeometry relative="1" as="geometry">
            <mxPoint x="615" y="2380" as="sourcePoint" />
            <mxPoint x="745" y="2380" as="targetPoint" />
          </mxGeometry>
        </mxCell>
        <mxCell id="6kmIEkO223TAk7wKPMEC-140" value="User Data" style="html=1;verticalAlign=bottom;endArrow=block;labelBackgroundColor=none;fontFamily=Verdana;fontSize=12;edgeStyle=elbowEdgeStyle;elbow=vertical;" edge="1" parent="1">
          <mxGeometry relative="1" as="geometry">
            <mxPoint x="615" y="2490" as="sourcePoint" />
            <mxPoint x="1020" y="2490" as="targetPoint" />
            <mxPoint as="offset" />
          </mxGeometry>
        </mxCell>
        <mxCell id="6kmIEkO223TAk7wKPMEC-141" value="return" style="html=1;verticalAlign=bottom;endArrow=open;dashed=1;endSize=8;" edge="1" parent="1">
          <mxGeometry relative="1" as="geometry">
            <mxPoint x="600" y="2175" as="sourcePoint" />
            <mxPoint x="480" y="2175" as="targetPoint" />
          </mxGeometry>
        </mxCell>
        <mxCell id="6kmIEkO223TAk7wKPMEC-142" value="Input" style="shape=umlLifeline;perimeter=lifelinePerimeter;whiteSpace=wrap;html=1;container=1;collapsible=0;recursiveResize=0;outlineConnect=0;rounded=1;shadow=0;comic=0;labelBackgroundColor=none;strokeWidth=1;fontFamily=Verdana;fontSize=12;align=center;" vertex="1" parent="1">
          <mxGeometry x="300" y="2630" width="100" height="580" as="geometry" />
        </mxCell>
        <mxCell id="6kmIEkO223TAk7wKPMEC-143" value="" style="html=1;points=[];perimeter=orthogonalPerimeter;rounded=0;shadow=0;comic=0;labelBackgroundColor=none;strokeWidth=1;fontFamily=Verdana;fontSize=12;align=center;" vertex="1" parent="6kmIEkO223TAk7wKPMEC-142">
          <mxGeometry x="45" y="100" width="10" height="270" as="geometry" />
        </mxCell>
        <mxCell id="6kmIEkO223TAk7wKPMEC-144" value="Login" style="shape=umlLifeline;perimeter=lifelinePerimeter;whiteSpace=wrap;html=1;container=1;collapsible=0;recursiveResize=0;outlineConnect=0;rounded=1;shadow=0;comic=0;labelBackgroundColor=none;strokeWidth=1;fontFamily=Verdana;fontSize=12;align=center;" vertex="1" parent="1">
          <mxGeometry x="460" y="2630" width="100" height="580" as="geometry" />
        </mxCell>
        <mxCell id="6kmIEkO223TAk7wKPMEC-145" value="" style="html=1;points=[];perimeter=orthogonalPerimeter;rounded=0;shadow=0;comic=0;labelBackgroundColor=none;strokeWidth=1;fontFamily=Verdana;fontSize=12;align=center;" vertex="1" parent="6kmIEkO223TAk7wKPMEC-144">
          <mxGeometry x="45" y="120" width="10" height="80" as="geometry" />
        </mxCell>
        <mxCell id="6kmIEkO223TAk7wKPMEC-146" value="Database" style="shape=umlLifeline;perimeter=lifelinePerimeter;whiteSpace=wrap;html=1;container=1;collapsible=0;recursiveResize=0;outlineConnect=0;rounded=1;shadow=0;comic=0;labelBackgroundColor=none;strokeWidth=1;fontFamily=Verdana;fontSize=12;align=center;" vertex="1" parent="1">
          <mxGeometry x="600" y="2630" width="100" height="580" as="geometry" />
        </mxCell>
        <mxCell id="6kmIEkO223TAk7wKPMEC-147" value="" style="html=1;points=[];perimeter=orthogonalPerimeter;rounded=0;shadow=0;comic=0;labelBackgroundColor=none;strokeWidth=1;fontFamily=Verdana;fontSize=12;align=center;" vertex="1" parent="6kmIEkO223TAk7wKPMEC-146">
          <mxGeometry x="45" y="130" width="10" height="50" as="geometry" />
        </mxCell>
        <mxCell id="6kmIEkO223TAk7wKPMEC-148" value="Chart" style="shape=umlLifeline;perimeter=lifelinePerimeter;whiteSpace=wrap;html=1;container=1;collapsible=0;recursiveResize=0;outlineConnect=0;rounded=1;shadow=0;comic=0;labelBackgroundColor=none;strokeWidth=1;fontFamily=Verdana;fontSize=12;align=center;" vertex="1" parent="1">
          <mxGeometry x="740" y="2630" width="100" height="580" as="geometry" />
        </mxCell>
        <mxCell id="6kmIEkO223TAk7wKPMEC-149" value="Calculation" style="shape=umlLifeline;perimeter=lifelinePerimeter;whiteSpace=wrap;html=1;container=1;collapsible=0;recursiveResize=0;outlineConnect=0;rounded=1;shadow=0;comic=0;labelBackgroundColor=none;strokeWidth=1;fontFamily=Verdana;fontSize=12;align=center;" vertex="1" parent="1">
          <mxGeometry x="880" y="2630" width="100" height="580" as="geometry" />
        </mxCell>
        <mxCell id="6kmIEkO223TAk7wKPMEC-150" value="" style="html=1;points=[];perimeter=orthogonalPerimeter;rounded=0;shadow=0;comic=0;labelBackgroundColor=none;strokeWidth=1;fontFamily=Verdana;fontSize=12;align=center;" vertex="1" parent="6kmIEkO223TAk7wKPMEC-149">
          <mxGeometry x="45" y="430" width="10" height="40" as="geometry" />
        </mxCell>
        <mxCell id="6kmIEkO223TAk7wKPMEC-151" value="Display" style="shape=umlLifeline;perimeter=lifelinePerimeter;whiteSpace=wrap;html=1;container=1;collapsible=0;recursiveResize=0;outlineConnect=0;rounded=1;shadow=0;comic=0;labelBackgroundColor=none;strokeWidth=1;fontFamily=Verdana;fontSize=12;align=center;" vertex="1" parent="1">
          <mxGeometry x="1020" y="2630" width="100" height="580" as="geometry" />
        </mxCell>
        <mxCell id="6kmIEkO223TAk7wKPMEC-152" value="" style="html=1;points=[];perimeter=orthogonalPerimeter;rounded=0;shadow=0;comic=0;labelBackgroundColor=none;strokeWidth=1;fontFamily=Verdana;fontSize=12;align=center;" vertex="1" parent="6kmIEkO223TAk7wKPMEC-151">
          <mxGeometry x="45" y="380" width="10" height="190" as="geometry" />
        </mxCell>
        <mxCell id="6kmIEkO223TAk7wKPMEC-153" value="User" style="shape=umlLifeline;perimeter=lifelinePerimeter;whiteSpace=wrap;html=1;container=1;collapsible=0;recursiveResize=0;outlineConnect=0;rounded=1;shadow=0;comic=0;labelBackgroundColor=none;strokeWidth=1;fontFamily=Verdana;fontSize=12;align=center;" vertex="1" parent="1">
          <mxGeometry x="160" y="2630" width="100" height="580" as="geometry" />
        </mxCell>
        <mxCell id="6kmIEkO223TAk7wKPMEC-154" value="" style="html=1;points=[];perimeter=orthogonalPerimeter;rounded=0;shadow=0;comic=0;labelBackgroundColor=none;strokeWidth=1;fontFamily=Verdana;fontSize=12;align=center;" vertex="1" parent="6kmIEkO223TAk7wKPMEC-153">
          <mxGeometry x="45" y="100" width="10" height="460" as="geometry" />
        </mxCell>
        <mxCell id="6kmIEkO223TAk7wKPMEC-155" value="Authentication &lt;font color=&quot;#ff0000&quot;&gt;FAILED&lt;/font&gt;" style="html=1;verticalAlign=bottom;endArrow=block;labelBackgroundColor=none;fontFamily=Verdana;fontSize=12;edgeStyle=elbowEdgeStyle;elbow=vertical;" edge="1" parent="1" target="6kmIEkO223TAk7wKPMEC-147">
          <mxGeometry x="0.2121" relative="1" as="geometry">
            <mxPoint x="560" y="2770" as="sourcePoint" />
            <Array as="points">
              <mxPoint x="520" y="2770" />
            </Array>
            <mxPoint as="offset" />
          </mxGeometry>
        </mxCell>
        <mxCell id="6kmIEkO223TAk7wKPMEC-156" value="" style="html=1;points=[];perimeter=orthogonalPerimeter;rounded=0;shadow=0;comic=0;labelBackgroundColor=none;strokeWidth=1;fontFamily=Verdana;fontSize=12;align=center;" vertex="1" parent="1">
          <mxGeometry x="785" y="3010" width="10" height="40" as="geometry" />
        </mxCell>
        <mxCell id="6kmIEkO223TAk7wKPMEC-157" value="" style="html=1;points=[];perimeter=orthogonalPerimeter;rounded=0;shadow=0;comic=0;labelBackgroundColor=none;strokeWidth=1;fontFamily=Verdana;fontSize=12;align=center;" vertex="1" parent="1">
          <mxGeometry x="645" y="2990" width="10" height="140" as="geometry" />
        </mxCell>
        <mxCell id="6kmIEkO223TAk7wKPMEC-158" value="Biometrics&lt;br&gt;Create, Update, Delete" style="html=1;verticalAlign=bottom;endArrow=block;entryX=0;entryY=0;labelBackgroundColor=none;fontFamily=Verdana;fontSize=12;exitX=1.2;exitY=0.967;exitDx=0;exitDy=0;exitPerimeter=0;" edge="1" parent="1" source="6kmIEkO223TAk7wKPMEC-143" target="6kmIEkO223TAk7wKPMEC-157">
          <mxGeometry relative="1" as="geometry">
            <mxPoint x="360" y="2990" as="sourcePoint" />
          </mxGeometry>
        </mxCell>
        <mxCell id="6kmIEkO223TAk7wKPMEC-159" value="return" style="html=1;verticalAlign=bottom;endArrow=open;dashed=1;endSize=8;labelBackgroundColor=none;fontFamily=Verdana;fontSize=12;edgeStyle=elbowEdgeStyle;elbow=vertical;" edge="1" parent="1" source="6kmIEkO223TAk7wKPMEC-152" target="6kmIEkO223TAk7wKPMEC-154">
          <mxGeometry relative="1" as="geometry">
            <mxPoint x="860" y="3176" as="targetPoint" />
            <Array as="points">
              <mxPoint x="1010" y="3170" />
              <mxPoint x="750" y="3160" />
              <mxPoint x="630" y="3150" />
            </Array>
          </mxGeometry>
        </mxCell>
        <mxCell id="6kmIEkO223TAk7wKPMEC-160" value="Authentication, &lt;br&gt;Biometrics" style="html=1;verticalAlign=bottom;endArrow=block;entryX=0;entryY=0;labelBackgroundColor=none;fontFamily=Verdana;fontSize=12;edgeStyle=elbowEdgeStyle;elbow=vertical;" edge="1" parent="1" source="6kmIEkO223TAk7wKPMEC-154" target="6kmIEkO223TAk7wKPMEC-143">
          <mxGeometry relative="1" as="geometry">
            <mxPoint x="280" y="2740" as="sourcePoint" />
          </mxGeometry>
        </mxCell>
        <mxCell id="6kmIEkO223TAk7wKPMEC-161" value="Authentication" style="html=1;verticalAlign=bottom;endArrow=block;entryX=0;entryY=0;labelBackgroundColor=none;fontFamily=Verdana;fontSize=12;edgeStyle=elbowEdgeStyle;elbow=vertical;" edge="1" parent="1" source="6kmIEkO223TAk7wKPMEC-143" target="6kmIEkO223TAk7wKPMEC-145">
          <mxGeometry relative="1" as="geometry">
            <mxPoint x="430" y="2750" as="sourcePoint" />
          </mxGeometry>
        </mxCell>
        <mxCell id="6kmIEkO223TAk7wKPMEC-162" style="edgeStyle=orthogonalEdgeStyle;rounded=0;orthogonalLoop=1;jettySize=auto;html=1;" edge="1" parent="1">
          <mxGeometry relative="1" as="geometry">
            <mxPoint x="655" y="3079" as="sourcePoint" />
            <mxPoint x="921" y="3079" as="targetPoint" />
            <Array as="points">
              <mxPoint x="720" y="3079" />
              <mxPoint x="720" y="3079" />
            </Array>
          </mxGeometry>
        </mxCell>
        <mxCell id="6kmIEkO223TAk7wKPMEC-163" value="&lt;font face=&quot;Verdana&quot; style=&quot;font-size: 12px&quot;&gt;User Data&lt;/font&gt;" style="edgeLabel;html=1;align=center;verticalAlign=middle;resizable=0;points=[];" vertex="1" connectable="0" parent="6kmIEkO223TAk7wKPMEC-162">
          <mxGeometry x="-0.1821" relative="1" as="geometry">
            <mxPoint x="29" y="-9.9" as="offset" />
          </mxGeometry>
        </mxCell>
        <mxCell id="6kmIEkO223TAk7wKPMEC-164" style="edgeStyle=orthogonalEdgeStyle;rounded=0;orthogonalLoop=1;jettySize=auto;html=1;exitX=1;exitY=0.725;exitDx=0;exitDy=0;exitPerimeter=0;" edge="1" parent="1" source="6kmIEkO223TAk7wKPMEC-150">
          <mxGeometry relative="1" as="geometry">
            <mxPoint x="800" y="3040" as="sourcePoint" />
            <mxPoint x="1060" y="3089" as="targetPoint" />
            <Array as="points">
              <mxPoint x="1030" y="3089" />
              <mxPoint x="1030" y="3089" />
            </Array>
          </mxGeometry>
        </mxCell>
        <mxCell id="6kmIEkO223TAk7wKPMEC-165" value="&lt;font face=&quot;Verdana&quot; style=&quot;font-size: 11px&quot;&gt;Daily Calorie Target&lt;/font&gt;" style="edgeLabel;html=1;align=center;verticalAlign=middle;resizable=0;points=[];" vertex="1" connectable="0" parent="6kmIEkO223TAk7wKPMEC-164">
          <mxGeometry x="-0.1821" relative="1" as="geometry">
            <mxPoint x="10" y="-9" as="offset" />
          </mxGeometry>
        </mxCell>
        <mxCell id="6kmIEkO223TAk7wKPMEC-166" style="edgeStyle=orthogonalEdgeStyle;rounded=0;orthogonalLoop=1;jettySize=auto;html=1;" edge="1" parent="1">
          <mxGeometry relative="1" as="geometry">
            <mxPoint x="795" y="3030" as="sourcePoint" />
            <mxPoint x="1060" y="3030" as="targetPoint" />
            <Array as="points">
              <mxPoint x="1000" y="3030" />
              <mxPoint x="1000" y="3030" />
            </Array>
          </mxGeometry>
        </mxCell>
        <mxCell id="6kmIEkO223TAk7wKPMEC-167" value="&lt;font face=&quot;Verdana&quot; style=&quot;font-size: 12px&quot;&gt;Progress Chart&lt;/font&gt;" style="edgeLabel;html=1;align=center;verticalAlign=middle;resizable=0;points=[];" vertex="1" connectable="0" parent="6kmIEkO223TAk7wKPMEC-166">
          <mxGeometry x="-0.1821" relative="1" as="geometry">
            <mxPoint x="23" y="-9.9" as="offset" />
          </mxGeometry>
        </mxCell>
        <mxCell id="6kmIEkO223TAk7wKPMEC-168" value="Historic User Data" style="html=1;verticalAlign=bottom;endArrow=block;entryX=0;entryY=0;labelBackgroundColor=none;fontFamily=Verdana;fontSize=12;edgeStyle=elbowEdgeStyle;elbow=vertical;" edge="1" parent="1">
          <mxGeometry relative="1" as="geometry">
            <mxPoint x="655" y="3010" as="sourcePoint" />
            <mxPoint x="785" y="3010" as="targetPoint" />
          </mxGeometry>
        </mxCell>
        <mxCell id="6kmIEkO223TAk7wKPMEC-169" value="User Data" style="html=1;verticalAlign=bottom;endArrow=block;labelBackgroundColor=none;fontFamily=Verdana;fontSize=12;edgeStyle=elbowEdgeStyle;elbow=vertical;" edge="1" parent="1">
          <mxGeometry relative="1" as="geometry">
            <mxPoint x="655" y="3120" as="sourcePoint" />
            <mxPoint x="1060" y="3120" as="targetPoint" />
            <mxPoint as="offset" />
          </mxGeometry>
        </mxCell>
        <mxCell id="6kmIEkO223TAk7wKPMEC-170" value="return" style="html=1;verticalAlign=bottom;endArrow=open;dashed=1;endSize=8;" edge="1" parent="1">
          <mxGeometry relative="1" as="geometry">
            <mxPoint x="640" y="2805" as="sourcePoint" />
            <mxPoint x="520" y="2805" as="targetPoint" />
          </mxGeometry>
        </mxCell>
        <mxCell id="6kmIEkO223TAk7wKPMEC-171" value="Input" style="shape=umlLifeline;perimeter=lifelinePerimeter;whiteSpace=wrap;html=1;container=1;collapsible=0;recursiveResize=0;outlineConnect=0;rounded=1;shadow=0;comic=0;labelBackgroundColor=none;strokeWidth=1;fontFamily=Verdana;fontSize=12;align=center;" vertex="1" parent="1">
          <mxGeometry x="300" y="3270" width="100" height="580" as="geometry" />
        </mxCell>
        <mxCell id="6kmIEkO223TAk7wKPMEC-172" value="" style="html=1;points=[];perimeter=orthogonalPerimeter;rounded=0;shadow=0;comic=0;labelBackgroundColor=none;strokeWidth=1;fontFamily=Verdana;fontSize=12;align=center;" vertex="1" parent="6kmIEkO223TAk7wKPMEC-171">
          <mxGeometry x="45" y="100" width="10" height="270" as="geometry" />
        </mxCell>
        <mxCell id="6kmIEkO223TAk7wKPMEC-173" value="Login" style="shape=umlLifeline;perimeter=lifelinePerimeter;whiteSpace=wrap;html=1;container=1;collapsible=0;recursiveResize=0;outlineConnect=0;rounded=1;shadow=0;comic=0;labelBackgroundColor=none;strokeWidth=1;fontFamily=Verdana;fontSize=12;align=center;" vertex="1" parent="1">
          <mxGeometry x="460" y="3270" width="100" height="580" as="geometry" />
        </mxCell>
        <mxCell id="6kmIEkO223TAk7wKPMEC-174" value="" style="html=1;points=[];perimeter=orthogonalPerimeter;rounded=0;shadow=0;comic=0;labelBackgroundColor=none;strokeWidth=1;fontFamily=Verdana;fontSize=12;align=center;" vertex="1" parent="6kmIEkO223TAk7wKPMEC-173">
          <mxGeometry x="45" y="120" width="10" height="80" as="geometry" />
        </mxCell>
        <mxCell id="6kmIEkO223TAk7wKPMEC-175" value="Database" style="shape=umlLifeline;perimeter=lifelinePerimeter;whiteSpace=wrap;html=1;container=1;collapsible=0;recursiveResize=0;outlineConnect=0;rounded=1;shadow=0;comic=0;labelBackgroundColor=none;strokeWidth=1;fontFamily=Verdana;fontSize=12;align=center;" vertex="1" parent="1">
          <mxGeometry x="600" y="3270" width="100" height="580" as="geometry" />
        </mxCell>
        <mxCell id="6kmIEkO223TAk7wKPMEC-176" value="" style="html=1;points=[];perimeter=orthogonalPerimeter;rounded=0;shadow=0;comic=0;labelBackgroundColor=none;strokeWidth=1;fontFamily=Verdana;fontSize=12;align=center;" vertex="1" parent="6kmIEkO223TAk7wKPMEC-175">
          <mxGeometry x="45" y="130" width="10" height="50" as="geometry" />
        </mxCell>
        <mxCell id="6kmIEkO223TAk7wKPMEC-177" value="Chart" style="shape=umlLifeline;perimeter=lifelinePerimeter;whiteSpace=wrap;html=1;container=1;collapsible=0;recursiveResize=0;outlineConnect=0;rounded=1;shadow=0;comic=0;labelBackgroundColor=none;strokeWidth=1;fontFamily=Verdana;fontSize=12;align=center;" vertex="1" parent="1">
          <mxGeometry x="740" y="3270" width="100" height="580" as="geometry" />
        </mxCell>
        <mxCell id="6kmIEkO223TAk7wKPMEC-178" value="Calculation" style="shape=umlLifeline;perimeter=lifelinePerimeter;whiteSpace=wrap;html=1;container=1;collapsible=0;recursiveResize=0;outlineConnect=0;rounded=1;shadow=0;comic=0;labelBackgroundColor=none;strokeWidth=1;fontFamily=Verdana;fontSize=12;align=center;" vertex="1" parent="1">
          <mxGeometry x="880" y="3270" width="100" height="580" as="geometry" />
        </mxCell>
        <mxCell id="6kmIEkO223TAk7wKPMEC-179" value="" style="html=1;points=[];perimeter=orthogonalPerimeter;rounded=0;shadow=0;comic=0;labelBackgroundColor=none;strokeWidth=1;fontFamily=Verdana;fontSize=12;align=center;" vertex="1" parent="6kmIEkO223TAk7wKPMEC-178">
          <mxGeometry x="45" y="430" width="10" height="40" as="geometry" />
        </mxCell>
        <mxCell id="6kmIEkO223TAk7wKPMEC-180" value="Display" style="shape=umlLifeline;perimeter=lifelinePerimeter;whiteSpace=wrap;html=1;container=1;collapsible=0;recursiveResize=0;outlineConnect=0;rounded=1;shadow=0;comic=0;labelBackgroundColor=none;strokeWidth=1;fontFamily=Verdana;fontSize=12;align=center;" vertex="1" parent="1">
          <mxGeometry x="1020" y="3270" width="100" height="580" as="geometry" />
        </mxCell>
        <mxCell id="6kmIEkO223TAk7wKPMEC-181" value="" style="html=1;points=[];perimeter=orthogonalPerimeter;rounded=0;shadow=0;comic=0;labelBackgroundColor=none;strokeWidth=1;fontFamily=Verdana;fontSize=12;align=center;" vertex="1" parent="6kmIEkO223TAk7wKPMEC-180">
          <mxGeometry x="45" y="380" width="10" height="190" as="geometry" />
        </mxCell>
        <mxCell id="6kmIEkO223TAk7wKPMEC-182" value="User" style="shape=umlLifeline;perimeter=lifelinePerimeter;whiteSpace=wrap;html=1;container=1;collapsible=0;recursiveResize=0;outlineConnect=0;rounded=1;shadow=0;comic=0;labelBackgroundColor=none;strokeWidth=1;fontFamily=Verdana;fontSize=12;align=center;" vertex="1" parent="1">
          <mxGeometry x="160" y="3270" width="100" height="580" as="geometry" />
        </mxCell>
        <mxCell id="6kmIEkO223TAk7wKPMEC-183" value="" style="html=1;points=[];perimeter=orthogonalPerimeter;rounded=0;shadow=0;comic=0;labelBackgroundColor=none;strokeWidth=1;fontFamily=Verdana;fontSize=12;align=center;" vertex="1" parent="6kmIEkO223TAk7wKPMEC-182">
          <mxGeometry x="45" y="100" width="10" height="460" as="geometry" />
        </mxCell>
        <mxCell id="6kmIEkO223TAk7wKPMEC-184" value="Authentication &lt;font color=&quot;#ff0000&quot;&gt;FAILED&lt;/font&gt;" style="html=1;verticalAlign=bottom;endArrow=block;labelBackgroundColor=none;fontFamily=Verdana;fontSize=12;edgeStyle=elbowEdgeStyle;elbow=vertical;" edge="1" parent="1" target="6kmIEkO223TAk7wKPMEC-176">
          <mxGeometry x="0.2121" relative="1" as="geometry">
            <mxPoint x="560" y="3410" as="sourcePoint" />
            <Array as="points">
              <mxPoint x="520" y="3410" />
            </Array>
            <mxPoint as="offset" />
          </mxGeometry>
        </mxCell>
        <mxCell id="6kmIEkO223TAk7wKPMEC-185" value="" style="html=1;points=[];perimeter=orthogonalPerimeter;rounded=0;shadow=0;comic=0;labelBackgroundColor=none;strokeWidth=1;fontFamily=Verdana;fontSize=12;align=center;" vertex="1" parent="1">
          <mxGeometry x="785" y="3650" width="10" height="40" as="geometry" />
        </mxCell>
        <mxCell id="6kmIEkO223TAk7wKPMEC-186" value="" style="html=1;points=[];perimeter=orthogonalPerimeter;rounded=0;shadow=0;comic=0;labelBackgroundColor=none;strokeWidth=1;fontFamily=Verdana;fontSize=12;align=center;" vertex="1" parent="1">
          <mxGeometry x="645" y="3630" width="10" height="140" as="geometry" />
        </mxCell>
        <mxCell id="6kmIEkO223TAk7wKPMEC-187" value="Biometrics&lt;br&gt;Create, Update, Delete" style="html=1;verticalAlign=bottom;endArrow=block;entryX=0;entryY=0;labelBackgroundColor=none;fontFamily=Verdana;fontSize=12;exitX=1.2;exitY=0.967;exitDx=0;exitDy=0;exitPerimeter=0;" edge="1" parent="1" source="6kmIEkO223TAk7wKPMEC-172" target="6kmIEkO223TAk7wKPMEC-186">
          <mxGeometry relative="1" as="geometry">
            <mxPoint x="360" y="3630" as="sourcePoint" />
          </mxGeometry>
        </mxCell>
        <mxCell id="6kmIEkO223TAk7wKPMEC-188" value="return" style="html=1;verticalAlign=bottom;endArrow=open;dashed=1;endSize=8;labelBackgroundColor=none;fontFamily=Verdana;fontSize=12;edgeStyle=elbowEdgeStyle;elbow=vertical;" edge="1" parent="1" source="6kmIEkO223TAk7wKPMEC-181" target="6kmIEkO223TAk7wKPMEC-183">
          <mxGeometry relative="1" as="geometry">
            <mxPoint x="860" y="3816" as="targetPoint" />
            <Array as="points">
              <mxPoint x="1010" y="3810" />
              <mxPoint x="750" y="3800" />
              <mxPoint x="630" y="3790" />
            </Array>
          </mxGeometry>
        </mxCell>
        <mxCell id="6kmIEkO223TAk7wKPMEC-189" value="Authentication, &lt;br&gt;Biometrics" style="html=1;verticalAlign=bottom;endArrow=block;entryX=0;entryY=0;labelBackgroundColor=none;fontFamily=Verdana;fontSize=12;edgeStyle=elbowEdgeStyle;elbow=vertical;" edge="1" parent="1" source="6kmIEkO223TAk7wKPMEC-183" target="6kmIEkO223TAk7wKPMEC-172">
          <mxGeometry relative="1" as="geometry">
            <mxPoint x="280" y="3380" as="sourcePoint" />
          </mxGeometry>
        </mxCell>
        <mxCell id="6kmIEkO223TAk7wKPMEC-190" value="Authentication" style="html=1;verticalAlign=bottom;endArrow=block;entryX=0;entryY=0;labelBackgroundColor=none;fontFamily=Verdana;fontSize=12;edgeStyle=elbowEdgeStyle;elbow=vertical;" edge="1" parent="1" source="6kmIEkO223TAk7wKPMEC-172" target="6kmIEkO223TAk7wKPMEC-174">
          <mxGeometry relative="1" as="geometry">
            <mxPoint x="430" y="3390" as="sourcePoint" />
          </mxGeometry>
        </mxCell>
        <mxCell id="6kmIEkO223TAk7wKPMEC-191" style="edgeStyle=orthogonalEdgeStyle;rounded=0;orthogonalLoop=1;jettySize=auto;html=1;" edge="1" parent="1">
          <mxGeometry relative="1" as="geometry">
            <mxPoint x="655" y="3719" as="sourcePoint" />
            <mxPoint x="921" y="3719" as="targetPoint" />
            <Array as="points">
              <mxPoint x="720" y="3719" />
              <mxPoint x="720" y="3719" />
            </Array>
          </mxGeometry>
        </mxCell>
        <mxCell id="6kmIEkO223TAk7wKPMEC-192" value="&lt;font face=&quot;Verdana&quot; style=&quot;font-size: 12px&quot;&gt;User Data&lt;/font&gt;" style="edgeLabel;html=1;align=center;verticalAlign=middle;resizable=0;points=[];" vertex="1" connectable="0" parent="6kmIEkO223TAk7wKPMEC-191">
          <mxGeometry x="-0.1821" relative="1" as="geometry">
            <mxPoint x="29" y="-9.9" as="offset" />
          </mxGeometry>
        </mxCell>
        <mxCell id="6kmIEkO223TAk7wKPMEC-193" style="edgeStyle=orthogonalEdgeStyle;rounded=0;orthogonalLoop=1;jettySize=auto;html=1;exitX=1;exitY=0.725;exitDx=0;exitDy=0;exitPerimeter=0;" edge="1" parent="1" source="6kmIEkO223TAk7wKPMEC-179">
          <mxGeometry relative="1" as="geometry">
            <mxPoint x="800" y="3680" as="sourcePoint" />
            <mxPoint x="1060" y="3729" as="targetPoint" />
            <Array as="points">
              <mxPoint x="1030" y="3729" />
              <mxPoint x="1030" y="3729" />
            </Array>
          </mxGeometry>
        </mxCell>
        <mxCell id="6kmIEkO223TAk7wKPMEC-194" value="&lt;font face=&quot;Verdana&quot; style=&quot;font-size: 11px&quot;&gt;Daily Calorie Target&lt;/font&gt;" style="edgeLabel;html=1;align=center;verticalAlign=middle;resizable=0;points=[];" vertex="1" connectable="0" parent="6kmIEkO223TAk7wKPMEC-193">
          <mxGeometry x="-0.1821" relative="1" as="geometry">
            <mxPoint x="10" y="-9" as="offset" />
          </mxGeometry>
        </mxCell>
        <mxCell id="6kmIEkO223TAk7wKPMEC-195" style="edgeStyle=orthogonalEdgeStyle;rounded=0;orthogonalLoop=1;jettySize=auto;html=1;" edge="1" parent="1">
          <mxGeometry relative="1" as="geometry">
            <mxPoint x="795" y="3670" as="sourcePoint" />
            <mxPoint x="1060" y="3670" as="targetPoint" />
            <Array as="points">
              <mxPoint x="1000" y="3670" />
              <mxPoint x="1000" y="3670" />
            </Array>
          </mxGeometry>
        </mxCell>
        <mxCell id="6kmIEkO223TAk7wKPMEC-196" value="&lt;font face=&quot;Verdana&quot; style=&quot;font-size: 12px&quot;&gt;Progress Chart&lt;/font&gt;" style="edgeLabel;html=1;align=center;verticalAlign=middle;resizable=0;points=[];" vertex="1" connectable="0" parent="6kmIEkO223TAk7wKPMEC-195">
          <mxGeometry x="-0.1821" relative="1" as="geometry">
            <mxPoint x="23" y="-9.9" as="offset" />
          </mxGeometry>
        </mxCell>
        <mxCell id="6kmIEkO223TAk7wKPMEC-197" value="Historic User Data" style="html=1;verticalAlign=bottom;endArrow=block;entryX=0;entryY=0;labelBackgroundColor=none;fontFamily=Verdana;fontSize=12;edgeStyle=elbowEdgeStyle;elbow=vertical;" edge="1" parent="1">
          <mxGeometry relative="1" as="geometry">
            <mxPoint x="655" y="3650" as="sourcePoint" />
            <mxPoint x="785" y="3650" as="targetPoint" />
          </mxGeometry>
        </mxCell>
        <mxCell id="6kmIEkO223TAk7wKPMEC-198" value="User Data" style="html=1;verticalAlign=bottom;endArrow=block;labelBackgroundColor=none;fontFamily=Verdana;fontSize=12;edgeStyle=elbowEdgeStyle;elbow=vertical;" edge="1" parent="1">
          <mxGeometry relative="1" as="geometry">
            <mxPoint x="655" y="3760" as="sourcePoint" />
            <mxPoint x="1060" y="3760" as="targetPoint" />
            <mxPoint as="offset" />
          </mxGeometry>
        </mxCell>
        <mxCell id="6kmIEkO223TAk7wKPMEC-199" value="return" style="html=1;verticalAlign=bottom;endArrow=open;dashed=1;endSize=8;" edge="1" parent="1">
          <mxGeometry relative="1" as="geometry">
            <mxPoint x="640" y="3445" as="sourcePoint" />
            <mxPoint x="520" y="3445" as="targetPoint" />
          </mxGeometry>
        </mxCell>
        <mxCell id="6kmIEkO223TAk7wKPMEC-200" value="&lt;font color=&quot;#009900&quot;&gt;SUCCESS&lt;/font&gt;" style="text;html=1;strokeColor=none;fillColor=none;align=center;verticalAlign=middle;whiteSpace=wrap;rounded=0;" vertex="1" parent="1">
          <mxGeometry x="470" y="260" width="40" height="20" as="geometry" />
        </mxCell>
        <mxCell id="6kmIEkO223TAk7wKPMEC-201" value="" style="endArrow=none;dashed=1;html=1;entryX=1.376;entryY=0.945;entryDx=0;entryDy=0;entryPerimeter=0;exitX=0.482;exitY=0.938;exitDx=0;exitDy=0;exitPerimeter=0;startArrow=open;startFill=0;" edge="1" parent="1" source="6kmIEkO223TAk7wKPMEC-10" target="6kmIEkO223TAk7wKPMEC-4">
          <mxGeometry width="50" height="50" relative="1" as="geometry">
            <mxPoint x="350" y="360" as="sourcePoint" />
            <mxPoint x="400" y="310" as="targetPoint" />
          </mxGeometry>
        </mxCell>
        <mxCell id="6kmIEkO223TAk7wKPMEC-202" value="Input" style="shape=umlLifeline;perimeter=lifelinePerimeter;whiteSpace=wrap;html=1;container=1;collapsible=0;recursiveResize=0;outlineConnect=0;rounded=1;shadow=0;comic=0;labelBackgroundColor=none;strokeWidth=1;fontFamily=Verdana;fontSize=12;align=center;" vertex="1" parent="1">
          <mxGeometry x="190" y="380" width="100" height="240" as="geometry" />
        </mxCell>
        <mxCell id="6kmIEkO223TAk7wKPMEC-203" value="" style="html=1;points=[];perimeter=orthogonalPerimeter;rounded=0;shadow=0;comic=0;labelBackgroundColor=none;strokeWidth=1;fontFamily=Verdana;fontSize=12;align=center;" vertex="1" parent="6kmIEkO223TAk7wKPMEC-202">
          <mxGeometry x="45" y="100" width="10" height="60" as="geometry" />
        </mxCell>
        <mxCell id="6kmIEkO223TAk7wKPMEC-204" value="Login" style="shape=umlLifeline;perimeter=lifelinePerimeter;whiteSpace=wrap;html=1;container=1;collapsible=0;recursiveResize=0;outlineConnect=0;rounded=1;shadow=0;comic=0;labelBackgroundColor=none;strokeWidth=1;fontFamily=Verdana;fontSize=12;align=center;" vertex="1" parent="1">
          <mxGeometry x="350" y="380" width="100" height="240" as="geometry" />
        </mxCell>
        <mxCell id="6kmIEkO223TAk7wKPMEC-205" value="" style="html=1;points=[];perimeter=orthogonalPerimeter;rounded=0;shadow=0;comic=0;labelBackgroundColor=none;strokeWidth=1;fontFamily=Verdana;fontSize=12;align=center;" vertex="1" parent="6kmIEkO223TAk7wKPMEC-204">
          <mxGeometry x="45" y="120" width="10" height="110" as="geometry" />
        </mxCell>
        <mxCell id="6kmIEkO223TAk7wKPMEC-206" value="Database" style="shape=umlLifeline;perimeter=lifelinePerimeter;whiteSpace=wrap;html=1;container=1;collapsible=0;recursiveResize=0;outlineConnect=0;rounded=1;shadow=0;comic=0;labelBackgroundColor=none;strokeWidth=1;fontFamily=Verdana;fontSize=12;align=center;" vertex="1" parent="1">
          <mxGeometry x="490" y="380" width="100" height="240" as="geometry" />
        </mxCell>
        <mxCell id="6kmIEkO223TAk7wKPMEC-207" value="" style="html=1;points=[];perimeter=orthogonalPerimeter;rounded=0;shadow=0;comic=0;labelBackgroundColor=none;strokeWidth=1;fontFamily=Verdana;fontSize=12;align=center;" vertex="1" parent="6kmIEkO223TAk7wKPMEC-206">
          <mxGeometry x="45" y="130" width="10" height="50" as="geometry" />
        </mxCell>
        <mxCell id="6kmIEkO223TAk7wKPMEC-208" value="Chart" style="shape=umlLifeline;perimeter=lifelinePerimeter;whiteSpace=wrap;html=1;container=1;collapsible=0;recursiveResize=0;outlineConnect=0;rounded=1;shadow=0;comic=0;labelBackgroundColor=none;strokeWidth=1;fontFamily=Verdana;fontSize=12;align=center;" vertex="1" parent="1">
          <mxGeometry x="630" y="380" width="100" height="240" as="geometry" />
        </mxCell>
        <mxCell id="6kmIEkO223TAk7wKPMEC-209" value="Calculation" style="shape=umlLifeline;perimeter=lifelinePerimeter;whiteSpace=wrap;html=1;container=1;collapsible=0;recursiveResize=0;outlineConnect=0;rounded=1;shadow=0;comic=0;labelBackgroundColor=none;strokeWidth=1;fontFamily=Verdana;fontSize=12;align=center;" vertex="1" parent="1">
          <mxGeometry x="770" y="380" width="100" height="240" as="geometry" />
        </mxCell>
        <mxCell id="6kmIEkO223TAk7wKPMEC-210" value="Display" style="shape=umlLifeline;perimeter=lifelinePerimeter;whiteSpace=wrap;html=1;container=1;collapsible=0;recursiveResize=0;outlineConnect=0;rounded=1;shadow=0;comic=0;labelBackgroundColor=none;strokeWidth=1;fontFamily=Verdana;fontSize=12;align=center;" vertex="1" parent="1">
          <mxGeometry x="910" y="380" width="100" height="240" as="geometry" />
        </mxCell>
        <mxCell id="6kmIEkO223TAk7wKPMEC-211" value="User" style="shape=umlLifeline;perimeter=lifelinePerimeter;whiteSpace=wrap;html=1;container=1;collapsible=0;recursiveResize=0;outlineConnect=0;rounded=1;shadow=0;comic=0;labelBackgroundColor=none;strokeWidth=1;fontFamily=Verdana;fontSize=12;align=center;" vertex="1" parent="1">
          <mxGeometry x="50" y="380" width="100" height="100" as="geometry" />
        </mxCell>
        <mxCell id="6kmIEkO223TAk7wKPMEC-212" value="Authentication&amp;nbsp;" style="html=1;verticalAlign=bottom;endArrow=block;labelBackgroundColor=none;fontFamily=Verdana;fontSize=12;edgeStyle=elbowEdgeStyle;elbow=vertical;" edge="1" parent="1" target="6kmIEkO223TAk7wKPMEC-207">
          <mxGeometry x="0.2121" relative="1" as="geometry">
            <mxPoint x="450" y="520" as="sourcePoint" />
            <Array as="points">
              <mxPoint x="410" y="520" />
            </Array>
            <mxPoint as="offset" />
          </mxGeometry>
        </mxCell>
        <mxCell id="6kmIEkO223TAk7wKPMEC-213" value="Authentication, &lt;br&gt;Biometrics" style="html=1;verticalAlign=bottom;endArrow=block;entryX=0;entryY=0;labelBackgroundColor=none;fontFamily=Verdana;fontSize=12;edgeStyle=elbowEdgeStyle;elbow=vertical;" edge="1" parent="1" target="6kmIEkO223TAk7wKPMEC-203">
          <mxGeometry relative="1" as="geometry">
            <mxPoint x="105" y="480.47058823529414" as="sourcePoint" />
          </mxGeometry>
        </mxCell>
        <mxCell id="6kmIEkO223TAk7wKPMEC-214" value="Authentication" style="html=1;verticalAlign=bottom;endArrow=block;entryX=0;entryY=0;labelBackgroundColor=none;fontFamily=Verdana;fontSize=12;edgeStyle=elbowEdgeStyle;elbow=vertical;" edge="1" parent="1" source="6kmIEkO223TAk7wKPMEC-203" target="6kmIEkO223TAk7wKPMEC-205">
          <mxGeometry relative="1" as="geometry">
            <mxPoint x="320" y="500" as="sourcePoint" />
          </mxGeometry>
        </mxCell>
        <mxCell id="6kmIEkO223TAk7wKPMEC-215" value="return" style="html=1;verticalAlign=bottom;endArrow=open;dashed=1;endSize=8;" edge="1" parent="1">
          <mxGeometry relative="1" as="geometry">
            <mxPoint x="530" y="555" as="sourcePoint" />
            <mxPoint x="410" y="555" as="targetPoint" />
          </mxGeometry>
        </mxCell>
        <mxCell id="6kmIEkO223TAk7wKPMEC-216" value="&lt;font color=&quot;#ff0000&quot;&gt;FAIL&lt;/font&gt;" style="text;html=1;strokeColor=none;fillColor=none;align=center;verticalAlign=middle;whiteSpace=wrap;rounded=0;" vertex="1" parent="1">
          <mxGeometry x="450" y="560" width="40" height="20" as="geometry" />
        </mxCell>
        <mxCell id="6kmIEkO223TAk7wKPMEC-217" value="" style="endArrow=none;dashed=1;html=1;entryX=1.376;entryY=0.945;entryDx=0;entryDy=0;entryPerimeter=0;exitX=0.482;exitY=0.938;exitDx=0;exitDy=0;exitPerimeter=0;startArrow=open;startFill=0;" edge="1" parent="1">
          <mxGeometry width="50" height="50" relative="1" as="geometry">
            <mxPoint x="958.1999999999994" y="587.1199999999997" as="sourcePoint" />
            <mxPoint x="408.75999999999976" y="585.95" as="targetPoint" />
          </mxGeometry>
        </mxCell>
        <mxCell id="6kmIEkO223TAk7wKPMEC-219" value="Error Message" style="edgeLabel;html=1;align=center;verticalAlign=middle;resizable=0;points=[];" vertex="1" connectable="0" parent="6kmIEkO223TAk7wKPMEC-217">
          <mxGeometry x="-0.1413" y="3" relative="1" as="geometry">
            <mxPoint x="-41.72" y="-19.619999999999997" as="offset" />
          </mxGeometry>
        </mxCell>
        <mxCell id="6kmIEkO223TAk7wKPMEC-218" value="return" style="html=1;verticalAlign=bottom;endArrow=open;dashed=1;endSize=8;" edge="1" parent="1" source="6kmIEkO223TAk7wKPMEC-210">
          <mxGeometry relative="1" as="geometry">
            <mxPoint x="530" y="610" as="sourcePoint" />
            <mxPoint x="410" y="610" as="targetPoint" />
          </mxGeometry>
        </mxCell>
      </root>
    </mxGraphModel>
  </diagram>
</mxfile>
